<svg xmlns="http://www.w3.org/2000/svg" width="298.76" height="62.056" viewBox="0 0 298.76 62.056"><g transform="translate(-140 -63)"><path d="M1.23-4.02C1.23-1.71,3.15.42,6.3.42a4.933,4.933,0,0,0,4.35-2.19A10,10,0,0,0,10.8,0h3.66a16.528,16.528,0,0,1-.18-2.34V-9.6c0-2.97-1.74-5.61-6.42-5.61-3.96,0-6.09,2.55-6.33,4.86l3.54.75A2.62,2.62,0,0,1,7.89-12c1.68,0,2.49.87,2.49,1.92,0,.51-.27.93-1.11,1.05l-3.63.54C3.18-8.13,1.23-6.66,1.23-4.02ZM7.14-2.55A1.732,1.732,0,0,1,5.22-4.26,1.863,1.863,0,0,1,7.05-6.12l3.33-.51v.66C10.38-3.36,8.82-2.55,7.14-2.55Zm9.9-1.56C17.22-2.43,18.75.45,23.19.45c3.87,0,5.73-2.46,5.73-4.86,0-2.16-1.47-3.93-4.38-4.53l-2.1-.45c-.81-.15-1.35-.6-1.35-1.32a1.7,1.7,0,0,1,1.89-1.47,2.249,2.249,0,0,1,2.43,1.98l3.33-.75c-.18-1.59-1.59-4.26-5.79-4.26-3.18,0-5.52,2.19-5.52,4.83,0,2.07,1.29,3.78,4.14,4.41l1.95.45c1.14.24,1.59.78,1.59,1.44,0,.78-.63,1.47-1.95,1.47a2.455,2.455,0,0,1-2.7-2.25Zm13.83,0C31.05-2.43,32.58.45,37.02.45c3.87,0,5.73-2.46,5.73-4.86,0-2.16-1.47-3.93-4.38-4.53l-2.1-.45c-.81-.15-1.35-.6-1.35-1.32a1.7,1.7,0,0,1,1.89-1.47,2.249,2.249,0,0,1,2.43,1.98l3.33-.75c-.18-1.59-1.59-4.26-5.79-4.26-3.18,0-5.52,2.19-5.52,4.83,0,2.07,1.29,3.78,4.14,4.41l1.95.45c1.14.24,1.59.78,1.59,1.44,0,.78-.63,1.47-1.95,1.47a2.455,2.455,0,0,1-2.7-2.25ZM49.95,0V-14.76H45.96V0ZM45.48-19.59a2.465,2.465,0,0,0,2.46,2.43,2.446,2.446,0,0,0,2.46-2.43,2.459,2.459,0,0,0-2.46-2.49A2.478,2.478,0,0,0,45.48-19.59ZM52.95-4.11C53.13-2.43,54.66.45,59.1.45c3.87,0,5.73-2.46,5.73-4.86,0-2.16-1.47-3.93-4.38-4.53l-2.1-.45c-.81-.15-1.35-.6-1.35-1.32a1.7,1.7,0,0,1,1.89-1.47,2.249,2.249,0,0,1,2.43,1.98l3.33-.75c-.18-1.59-1.59-4.26-5.79-4.26-3.18,0-5.52,2.19-5.52,4.83,0,2.07,1.29,3.78,4.14,4.41l1.95.45c1.14.24,1.59.78,1.59,1.44,0,.78-.63,1.47-1.95,1.47a2.455,2.455,0,0,1-2.7-2.25ZM72.96-19.17h-3.6v2.07a2.126,2.126,0,0,1-2.28,2.34h-.75v3.54H69v6.87C69-1.5,70.8.21,73.68.21a5.919,5.919,0,0,0,2.25-.36v-3.3a5.791,5.791,0,0,1-1.23.12c-1.14,0-1.74-.42-1.74-1.71v-6.18h2.97v-3.54H72.96ZM83.31,0V-14.76H79.32V0ZM78.84-19.59a2.465,2.465,0,0,0,2.46,2.43,2.446,2.446,0,0,0,2.46-2.43,2.459,2.459,0,0,0-2.46-2.49A2.478,2.478,0,0,0,78.84-19.59Zm22.65,4.83h-4.2l-3.51,9.9-3.66-9.9H85.74L91.77,0h3.99Zm4.89,5.7a3.194,3.194,0,0,1,3.3-2.91,2.968,2.968,0,0,1,3.3,2.91Zm6.99,3.84a3.259,3.259,0,0,1-3.36,2.25,3.6,3.6,0,0,1-3.72-3.36h10.56c0-.06.06-.66.06-1.23,0-4.74-2.73-7.65-7.29-7.65a7.41,7.41,0,0,0-7.26,7.77A7.476,7.476,0,0,0,109.98.45a6.648,6.648,0,0,0,6.72-4.68Zm20.73-6.3a3.219,3.219,0,0,1,3.27,2.49l3.57-1.2a6.757,6.757,0,0,0-6.93-4.98,7.557,7.557,0,0,0-7.65,7.83A7.637,7.637,0,0,0,134.13.45a6.853,6.853,0,0,0,6.9-4.98L137.52-5.7a3.378,3.378,0,0,1-3.39,2.49c-2.04,0-3.78-1.5-3.78-4.17S132.06-11.52,134.1-11.52Zm8.91,7.5c0,2.31,1.92,4.44,5.07,4.44a4.933,4.933,0,0,0,4.35-2.19A10,10,0,0,0,152.58,0h3.66a16.526,16.526,0,0,1-.18-2.34V-9.6c0-2.97-1.74-5.61-6.42-5.61-3.96,0-6.09,2.55-6.33,4.86l3.54.75a2.62,2.62,0,0,1,2.82-2.4c1.68,0,2.49.87,2.49,1.92,0,.51-.27.93-1.11,1.05l-3.63.54C144.96-8.13,143.01-6.66,143.01-4.02Zm5.91,1.47A1.732,1.732,0,0,1,147-4.26a1.863,1.863,0,0,1,1.83-1.86l3.33-.51v.66C152.16-3.36,150.6-2.55,148.92-2.55Zm20.16-12.27a9.085,9.085,0,0,0-.93-.06,4.39,4.39,0,0,0-4.2,2.31v-2.19h-3.87V0h3.99V-6.75c0-3.18,1.77-4.17,3.81-4.17a6.008,6.008,0,0,1,1.2.12Zm16.74-6.9h-3.93v8.43c-.42-.78-1.62-1.83-4.17-1.83-4.17,0-7.08,3.39-7.08,7.71,0,4.47,3,7.77,7.2,7.77a4.627,4.627,0,0,0,4.14-2.07A10.191,10.191,0,0,0,182.13,0h3.81c-.06-.6-.12-1.68-.12-2.67ZM174.66-7.41c0-2.64,1.62-4.14,3.66-4.14s3.63,1.47,3.63,4.11c0,2.67-1.59,4.23-3.63,4.23C176.22-3.21,174.66-4.77,174.66-7.41Zm14.22,3.3c.18,1.68,1.71,4.56,6.15,4.56,3.87,0,5.73-2.46,5.73-4.86,0-2.16-1.47-3.93-4.38-4.53l-2.1-.45c-.81-.15-1.35-.6-1.35-1.32a1.7,1.7,0,0,1,1.89-1.47,2.249,2.249,0,0,1,2.43,1.98l3.33-.75c-.18-1.59-1.59-4.26-5.79-4.26-3.18,0-5.52,2.19-5.52,4.83,0,2.07,1.29,3.78,4.14,4.41l1.95.45c1.14.24,1.59.78,1.59,1.44,0,.78-.63,1.47-1.95,1.47a2.455,2.455,0,0,1-2.7-2.25Z" transform="translate(238 108)" fill="#3e455b"/><g transform="translate(-63.121 9.059)"><rect width="40.289" height="45.867" rx="10" transform="translate(203.121 71.64) rotate(-16)" fill="#00bbd3"/><rect width="48.966" height="55.784" rx="10" transform="translate(216.682 60.176)" fill="#70e3f2"/><rect width="48.966" height="55.784" rx="10" transform="translate(231.339 53.941) rotate(8)" fill="#ff81a2"/></g></g></svg>
